<svg xmlns="http://www.w3.org/2000/svg" xmlns:xlink="http://www.w3.org/1999/xlink" width="500" zoomAndPan="magnify" viewBox="0 0 375 374.999991" height="500" preserveAspectRatio="xMidYMid meet" version="1.0"><defs><g/></defs><g fill="#000000" fill-opacity="1"><g transform="translate(150.914057, 198.749987)"><g><path d="M 10.71875 -10.65625 L 6.09375 -5.953125 L 6.09375 0 L 3.6875 0 L 3.6875 -22.65625 L 6.09375 -22.65625 L 6.09375 -8.96875 L 19.390625 -22.65625 L 22.140625 -22.65625 L 12.328125 -12.40625 L 22.828125 0 L 19.96875 0 Z M 10.71875 -10.65625 "/></g></g></g><g fill="#000000" fill-opacity="1"><g transform="translate(173.927071, 198.749987)"><g><path d="M 3.203125 -17.03125 L 5.5 -17.03125 L 5.5 0 L 3.203125 0 Z M 4.359375 -20.75 C 3.890625 -20.75 3.492188 -20.910156 3.171875 -21.234375 C 2.847656 -21.554688 2.6875 -21.945312 2.6875 -22.40625 C 2.6875 -22.832031 2.847656 -23.207031 3.171875 -23.53125 C 3.492188 -23.851562 3.890625 -24.015625 4.359375 -24.015625 C 4.835938 -24.015625 5.238281 -23.859375 5.5625 -23.546875 C 5.882812 -23.234375 6.046875 -22.863281 6.046875 -22.4375 C 6.046875 -21.957031 5.882812 -21.554688 5.5625 -21.234375 C 5.238281 -20.910156 4.835938 -20.75 4.359375 -20.75 Z M 4.359375 -20.75 "/></g></g></g><g fill="#000000" fill-opacity="1"><g transform="translate(182.633827, 198.749987)"><g><path d="M 18.03125 -7.796875 L 3.78125 -7.796875 C 3.914062 -6.023438 4.597656 -4.59375 5.828125 -3.5 C 7.054688 -2.414062 8.609375 -1.875 10.484375 -1.875 C 11.546875 -1.875 12.519531 -2.0625 13.40625 -2.4375 C 14.289062 -2.820312 15.054688 -3.378906 15.703125 -4.109375 L 17 -2.625 C 16.238281 -1.71875 15.289062 -1.023438 14.15625 -0.546875 C 13.03125 -0.078125 11.785156 0.15625 10.421875 0.15625 C 8.671875 0.15625 7.117188 -0.210938 5.765625 -0.953125 C 4.421875 -1.703125 3.367188 -2.734375 2.609375 -4.046875 C 1.859375 -5.359375 1.484375 -6.847656 1.484375 -8.515625 C 1.484375 -10.171875 1.84375 -11.65625 2.5625 -12.96875 C 3.289062 -14.289062 4.285156 -15.316406 5.546875 -16.046875 C 6.816406 -16.785156 8.238281 -17.15625 9.8125 -17.15625 C 11.382812 -17.15625 12.796875 -16.785156 14.046875 -16.046875 C 15.296875 -15.316406 16.273438 -14.300781 16.984375 -13 C 17.703125 -11.695312 18.0625 -10.203125 18.0625 -8.515625 Z M 9.8125 -15.1875 C 8.164062 -15.1875 6.785156 -14.660156 5.671875 -13.609375 C 4.566406 -12.566406 3.9375 -11.203125 3.78125 -9.515625 L 15.859375 -9.515625 C 15.710938 -11.203125 15.082031 -12.566406 13.96875 -13.609375 C 12.851562 -14.660156 11.46875 -15.1875 9.8125 -15.1875 Z M 9.8125 -15.1875 "/></g></g></g><g fill="#000000" fill-opacity="1"><g transform="translate(202.183562, 198.749987)"><g><path d="M 11.875 -17.15625 C 14.019531 -17.15625 15.722656 -16.535156 16.984375 -15.296875 C 18.242188 -14.054688 18.875 -12.25 18.875 -9.875 L 18.875 0 L 16.578125 0 L 16.578125 -9.640625 C 16.578125 -11.410156 16.132812 -12.757812 15.25 -13.6875 C 14.363281 -14.625 13.097656 -15.09375 11.453125 -15.09375 C 9.617188 -15.09375 8.164062 -14.546875 7.09375 -13.453125 C 6.03125 -12.359375 5.5 -10.851562 5.5 -8.9375 L 5.5 0 L 3.203125 0 L 3.203125 -17.03125 L 5.40625 -17.03125 L 5.40625 -13.890625 C 6.03125 -14.921875 6.898438 -15.722656 8.015625 -16.296875 C 9.128906 -16.867188 10.414062 -17.15625 11.875 -17.15625 Z M 11.875 -17.15625 "/></g></g></g></svg>